# xmcd CD database file
# Copyright (C) 1997 Ti Kan
# 
# Track frame offsets:
#     150
#     18437
#     33357
#     51927
#     69867
#     93877
#     107105
#     119127
#     135452
#     151405
#     169050
#     188155
#     212475
#     226009
# 
# Disc length: 3188 seconds
# 
# Revision: 1
# Processed by: cddbd v1.4b41PL1 Copyright (c) Steve Scherf et al.
# Submitted via: DiscPlay 4.0.4
# 
DISCID=b20c720e
DTITLE=Globo Collection - Globo Rural
DYEAR=1900
DGENRE=
TTITLE0=Tristeza do Jeca
TTITLE1=Viganca do Chico Mineiro
TTITLE2=Chitaozinho e Xororo
TTITLE3=Maringa
TTITLE4=Guacyra Chua Chua
TTITLE5=Rio de Lagrimas
TTITLE6=Saudades de Matao
TTITLE7=Velho Macho
TTITLE8=Moreninha Linda
TTITLE9=Triste Berrante
TTITLE10=Fogao de Lenha
TTITLE11=Luar do Sertao
TTITLE12=Casinha Pequenina
TTITLE13=Joao-de-Barro
EXTD=
EXTT0=
EXTT1=
EXTT2=
EXTT3=
EXTT4=
EXTT5=
EXTT6=
EXTT7=
EXTT8=
EXTT9=
EXTT10=
EXTT11=
EXTT12=
EXTT13=
PLAYORDER=
